<svg width="220" height="39" viewBox="0 0 220 39" fill="none" xmlns="http://www.w3.org/2000/svg">
<g clip-path="url(#clip0_674_11099)">
<path d="M3.85064 1.71308H11.3319V8.34673H16.7228V13.6318H11.3319V24.5299C11.3319 26.8262 12.0653 27.2636 14.5591 27.2636H16.7228V32.6579H11.9553C5.90432 32.6579 3.85064 31.4916 3.85064 25.8421V13.6318H0V8.34673H3.85064V1.71308ZM42.1003 25.0766C39.9 30.8355 34.7658 33.314 29.8883 33.314C21.9303 33.314 16.4661 28.5393 16.4661 20.4112C16.4661 12.2832 22.4071 7.69065 29.5949 7.69065C37.7363 7.69065 42.7238 13.814 42.2104 22.4523H24.0573C24.2774 25.915 26.9912 27.4822 29.7049 27.4822C32.5654 27.4822 34.3624 26.4617 35.2059 25.0402L42.1003 25.0766ZM24.1674 17.9327H34.7658C34.6191 14.871 32.4921 13.3402 29.6316 13.3402C26.7711 13.3402 24.5708 14.7252 24.1674 17.9327ZM67.9547 17.2766H60.9868C60.3267 14.4336 58.5298 13.4495 56.3294 13.4495C53.6523 13.4495 51.0118 15.272 51.0118 20.4841C51.0118 25.6963 53.6523 27.5187 56.3294 27.5187C59.0065 27.5187 60.8035 26.0972 61.3536 23.7645H68.3214C66.6344 30.9813 60.7668 33.2776 55.8526 33.2776C47.7846 33.2776 43.3472 28.1383 43.3472 20.3748C43.3472 12.6112 48.4447 7.65421 55.8526 7.65421C60.9135 7.65421 66.4877 9.95047 67.9547 17.2766ZM76.6461 11.5907C77.7096 9.76822 80.3867 7.83645 84.2374 7.83645C90.5084 7.83645 92.4887 11.5178 92.4887 18.115V32.7308H85.0075V20.0103C85.0075 16.5477 84.8975 13.7047 81.2669 13.7047C78.0397 13.7047 76.6828 15.7822 76.6828 20.3383V32.8037H69.2015V0H76.6828L76.6461 11.5907ZM109.725 15.5271C109.212 13.7047 107.305 13.1944 104.957 13.1944C102.354 13.1944 101.07 13.814 101.07 15.0168C101.07 16.1467 101.95 16.8028 104.077 17.2037L108.661 18.0056C114.529 19.0626 117.353 20.8122 117.353 25.0766C117.353 30.5439 112.292 33.314 105.508 33.314C98.7231 33.314 94.3591 30.5804 93.5156 24.8215H100.483C101.144 27.1542 103.051 27.8832 105.618 27.8832C108.185 27.8832 110.165 27.1542 110.165 25.6963C110.165 24.6393 109.212 23.9103 106.314 23.4364L101.95 22.7075C97.2195 21.9421 93.9923 19.5729 93.9923 15.272C93.9923 10.4243 99.1265 7.76355 105.178 7.76355C110.752 7.76355 115.849 9.98692 116.766 15.5636L109.725 15.5271ZM121.204 1.71308H128.685V8.34673H134.076V13.6318H128.685V24.5299C128.685 26.8262 129.418 27.2636 131.912 27.2636H134.039V32.6579H129.308C123.257 32.6579 121.204 31.4916 121.204 25.8421V13.6318H117.353V8.34673H121.204V1.71308ZM151.165 16.5477C151.165 13.6318 149.772 12.6841 147.021 12.6841C144.601 12.6841 142.987 13.9234 142.657 16.2561H135.653C136.019 11.6636 140.383 7.61776 147.645 7.61776C154.906 7.61776 158.72 10.4607 158.573 17.8598L158.463 23.1449V25.6963C158.463 28.357 158.646 31.2365 159.013 32.7308H151.642L151.532 29.7785C149.698 32.3664 146.801 33.314 143.281 33.314C138.623 33.314 134.809 30.6168 134.809 26.1701C134.809 20.1925 141.594 18.2607 151.092 17.5318L151.165 16.5477ZM151.385 21.9056C146.141 22.4159 142.657 22.9262 142.657 25.6234C142.657 27.1907 144.161 28.2477 146.104 28.2477C149.112 28.2477 151.385 26.972 151.385 22.4888V21.9056ZM175.736 15.5271C175.076 15.4178 174.342 15.3449 173.682 15.3813C170.052 15.3813 168.181 16.6935 168.181 20.4841V32.6944H160.663V8.34673H167.888V12.9757C169.025 10.0598 171.079 8.34673 174.562 8.20093H175.113C175.333 8.20093 175.516 8.20093 175.736 8.23738V15.5271ZM192.312 15.5271C191.799 13.7047 189.892 13.1944 187.545 13.1944C184.941 13.1944 183.657 13.814 183.657 15.0168C183.657 16.1467 184.537 16.8028 186.664 17.2037L191.212 18.0056C197.08 19.0626 199.903 20.8122 199.903 25.0766C199.903 30.5439 194.842 33.314 188.058 33.314C181.274 33.314 176.909 30.5804 176.066 24.8215H183.034C183.694 27.1542 185.601 27.8832 188.168 27.8832C190.735 27.8832 192.715 27.1542 192.715 25.6963C192.715 24.6393 191.762 23.9103 188.865 23.4364L184.501 22.7075C179.77 21.9421 176.579 19.5729 176.579 15.272C176.579 10.4243 181.714 7.76355 187.765 7.76355C193.339 7.76355 198.436 9.98692 199.353 15.5636L192.312 15.5271Z" fill="black"/>
<path d="M199.757 38.9996V32.7305H220V38.9996H199.757Z" fill="black"/>
</g>
<defs>
<clipPath id="clip0_674_11099">
<rect width="220" height="39" fill="white"/>
</clipPath>
</defs>
</svg>
